<svg width="30" height="25" viewBox="0 0 30 25" fill="none" xmlns="http://www.w3.org/2000/svg">
<path d="M4.04297 19.125C1.51172 19.125 0.199219 17.8242 0.199219 15.3281V4.19531C0.199219 1.6875 1.51172 0.386719 4.04297 0.386719H20.0391C22.5586 0.386719 23.8828 1.6875 23.8828 4.19531V5.95312H25.957C28.4883 5.95312 29.8008 7.25391 29.8008 9.76172V20.8945C29.8008 23.3906 28.4883 24.6914 25.957 24.6914H9.96094C7.42969 24.6914 6.11719 23.4023 6.11719 20.8945V19.125H4.04297ZM4.18359 16.8281H6.11719V9.76172C6.11719 7.25391 7.42969 5.95312 9.96094 5.95312H21.5859V4.38281C21.5859 3.24609 20.9766 2.68359 19.8984 2.68359H4.18359C3.09375 2.68359 2.49609 3.24609 2.49609 4.38281V15.1289C2.49609 16.2656 3.09375 16.8281 4.18359 16.8281ZM8.41406 9.96094V19.6406L10.9805 17.3906C11.4141 17.0156 11.8477 16.8281 12.3047 16.8281C12.7852 16.8281 13.2539 17.0039 13.6875 17.4023L15.5273 19.0664L20.1445 14.9766C20.6133 14.5547 21.1172 14.3672 21.6797 14.3672C22.2422 14.3672 22.7812 14.5664 23.2148 14.9883L27.5039 19.0195V9.96094C27.5039 8.82422 26.8945 8.25 25.8164 8.25H10.1016C9.01172 8.25 8.41406 8.82422 8.41406 9.96094ZM14.7539 15.2344C13.3945 15.2344 12.293 14.1094 12.293 12.75C12.293 11.4141 13.3945 10.2891 14.7539 10.2891C16.1016 10.2891 17.2148 11.4141 17.2148 12.75C17.2148 14.1094 16.1016 15.2344 14.7539 15.2344Z" fill="white"/>
</svg>
